# xmcd
#
# Track frame offsets:
#	150
#	18700
#	39865
#	61252
#	77492
#	98197
#	115650
#	119472
#	140390
#	161575
#	182855
#	200485
#	217850
#	237662
#
# Disc length: 3242 seconds
#
# Revision: 3
# Processed by: cddbd v1.5.2PL0 Copyright (c) Steve Scherf et al.
# Submitted via: EasyCDDAExtractor 10.2.0.1
#
DISCID=bb0ca80e
DTITLE=Angie and Debbie Winans - Bold
DYEAR=1997
DGENRE=Gospel
TTITLE0=Rebuke the devil
TTITLE1=I believe
TTITLE2=Never gonna
TTITLE3=Not natural
TTITLE4=Love won't
TTITLE5=Sounds like love
TTITLE6=Strange woman (intro)
TTITLE7=Strange woman
TTITLE8=Love will lead the way
TTITLE9=Told you so
TTITLE10=Watch what I tell you
TTITLE11=Can't understand
TTITLE12=Ryan's song
TTITLE13=Love won't (reprise)
EXTD=
EXTT0=
EXTT1=
EXTT2=
EXTT3=
EXTT4=
EXTT5=
EXTT6=
EXTT7=
EXTT8=
EXTT9=
EXTT10=
EXTT11=
EXTT12=
EXTT13=
PLAYORDER=
